<svg xmlns="http://www.w3.org/2000/svg" xmlns:xlink="http://www.w3.org/1999/xlink" class="httpgd" width="1024.00" height="619.00" viewBox="0 0 819.20 495.20">
<defs>
  <style type='text/css'><![CDATA[
    .httpgd line, .httpgd polyline, .httpgd polygon, .httpgd path, .httpgd rect, .httpgd circle {
      fill: none;
      stroke: #000000;
      stroke-linecap: round;
      stroke-linejoin: round;
      stroke-miterlimit: 10.00;
    }
  ]]></style>
<clipPath id="c0"><rect x="0.00" y="0.00" width="819.20" height="495.20"/></clipPath>
<clipPath id="c1"><rect x="40.58" y="27.85" width="773.15" height="428.86"/></clipPath>
<clipPath id="c2"><rect x="0.00" y="0.00" width="819.20" height="495.20"/></clipPath>
</defs>
<rect width="100%" height="100%" style="stroke: none;fill: #FFFFFF;"/>
<g clip-path="url(#c0)">
</g><g clip-path="url(#c1)">
<polyline points="40.58,445.73 813.72,445.73" style="stroke-width: 0.53;stroke: #EBEBEB;stroke-linecap: butt;"/>
<polyline points="40.58,374.84 813.72,374.84" style="stroke-width: 0.53;stroke: #EBEBEB;stroke-linecap: butt;"/>
<polyline points="40.58,303.95 813.72,303.95" style="stroke-width: 0.53;stroke: #EBEBEB;stroke-linecap: butt;"/>
<polyline points="40.58,233.07 813.72,233.07" style="stroke-width: 0.53;stroke: #EBEBEB;stroke-linecap: butt;"/>
<polyline points="40.58,162.18 813.72,162.18" style="stroke-width: 0.53;stroke: #EBEBEB;stroke-linecap: butt;"/>
<polyline points="40.58,91.29 813.72,91.29" style="stroke-width: 0.53;stroke: #EBEBEB;stroke-linecap: butt;"/>
<polyline points="58.98,456.71 58.98,27.85" style="stroke-width: 0.53;stroke: #EBEBEB;stroke-linecap: butt;"/>
<polyline points="226.33,456.71 226.33,27.85" style="stroke-width: 0.53;stroke: #EBEBEB;stroke-linecap: butt;"/>
<polyline points="393.68,456.71 393.68,27.85" style="stroke-width: 0.53;stroke: #EBEBEB;stroke-linecap: butt;"/>
<polyline points="561.03,456.71 561.03,27.85" style="stroke-width: 0.53;stroke: #EBEBEB;stroke-linecap: butt;"/>
<polyline points="728.37,456.71 728.37,27.85" style="stroke-width: 0.53;stroke: #EBEBEB;stroke-linecap: butt;"/>
<polyline points="40.58,410.28 813.72,410.28" style="stroke-width: 1.07;stroke: #EBEBEB;stroke-linecap: butt;"/>
<polyline points="40.58,339.40 813.72,339.40" style="stroke-width: 1.07;stroke: #EBEBEB;stroke-linecap: butt;"/>
<polyline points="40.58,268.51 813.72,268.51" style="stroke-width: 1.07;stroke: #EBEBEB;stroke-linecap: butt;"/>
<polyline points="40.58,197.62 813.72,197.62" style="stroke-width: 1.07;stroke: #EBEBEB;stroke-linecap: butt;"/>
<polyline points="40.58,126.74 813.72,126.74" style="stroke-width: 1.07;stroke: #EBEBEB;stroke-linecap: butt;"/>
<polyline points="40.58,55.85 813.72,55.85" style="stroke-width: 1.07;stroke: #EBEBEB;stroke-linecap: butt;"/>
<polyline points="142.66,456.71 142.66,27.85" style="stroke-width: 1.07;stroke: #EBEBEB;stroke-linecap: butt;"/>
<polyline points="310.00,456.71 310.00,27.85" style="stroke-width: 1.07;stroke: #EBEBEB;stroke-linecap: butt;"/>
<polyline points="477.35,456.71 477.35,27.85" style="stroke-width: 1.07;stroke: #EBEBEB;stroke-linecap: butt;"/>
<polyline points="644.70,456.71 644.70,27.85" style="stroke-width: 1.07;stroke: #EBEBEB;stroke-linecap: butt;"/>
<polyline points="812.05,456.71 812.05,27.85" style="stroke-width: 1.07;stroke: #EBEBEB;stroke-linecap: butt;"/>
<polyline points="75.72,81.37 92.45,95.37 109.19,108.49 125.92,110.22 142.66,115.82 159.39,118.95 176.13,122.39 192.86,122.04 209.60,122.94 226.33,122.38 243.07,124.16 259.80,123.18 276.54,122.01 293.27,121.17 310.00,120.09 326.74,120.65 343.47,120.63 360.21,117.58 376.94,114.23 393.68,111.51 410.41,110.59 427.15,109.36 443.88,108.46 460.62,109.64 477.35,111.58 494.09,112.44 510.82,113.09 527.56,114.74 544.29,117.52 561.03,121.29 577.76,124.06 594.50,131.94 611.23,130.52 627.96,131.13 644.70,132.65 661.43,133.03 678.17,133.32 694.90,132.37 711.64,132.44 728.37,132.59 745.11,132.05 761.84,132.19 778.58,132.25" style="stroke-width: 2.13;stroke: #E41A1C;stroke-linecap: butt;"/>
<polyline points="75.72,130.28 92.45,131.40 109.19,132.79 125.92,129.74 142.66,129.36 159.39,128.64 176.13,129.50 192.86,127.29 209.60,127.31 226.33,125.62 243.07,128.04 259.80,125.78 276.54,123.68 293.27,122.57 310.00,121.10 326.74,122.94 343.47,122.69 360.21,117.56 376.94,111.96 393.68,108.56 410.41,112.48 427.15,110.28 443.88,109.11 460.62,112.07 477.35,114.71 494.09,115.29 510.82,115.78 527.56,117.94 544.29,121.40 561.03,125.72 577.76,128.27 594.50,137.98 611.23,134.62 627.96,134.46 644.70,136.08 661.43,135.91 678.17,135.91 694.90,134.08 711.64,134.44 728.37,134.68 745.11,133.71 761.84,134.15 778.58,134.23" style="stroke-width: 2.13;stroke: #377EB8;stroke-linecap: butt;"/>
<polyline points="75.72,250.79 92.45,252.12 109.19,255.90 125.92,255.83 142.66,259.71 159.39,262.99 176.13,267.64 192.86,267.74 209.60,269.86 226.33,269.79 243.07,272.98 259.80,271.91 276.54,270.92 293.27,270.58 310.00,269.86 326.74,271.27 343.47,271.13 360.21,267.86 376.94,264.31 393.68,262.16 410.41,264.45 427.15,262.71 443.88,261.61 460.62,262.92 477.35,264.19 494.09,264.45 510.82,264.79 527.56,266.27 544.29,268.64 561.03,271.69 577.76,273.72 594.50,280.90 611.23,278.92 627.96,279.25 644.70,280.83 661.43,281.06 678.17,281.38 694.90,280.39 711.64,280.86 728.37,281.14 745.11,280.59 761.84,280.94 778.58,281.02" style="stroke-width: 2.13;stroke: #4DAF4A;stroke-linecap: butt;"/>
<circle cx="75.72" cy="81.37" r="1.42" style="stroke-width: 0.71;stroke: #E41A1C;fill: #E41A1C;"/>
<circle cx="75.72" cy="130.28" r="1.42" style="stroke-width: 0.71;stroke: #377EB8;fill: #377EB8;"/>
<circle cx="75.72" cy="250.79" r="1.42" style="stroke-width: 0.71;stroke: #4DAF4A;fill: #4DAF4A;"/>
<circle cx="92.45" cy="65.77" r="1.42" style="stroke-width: 0.71;stroke: #E41A1C;fill: #E41A1C;"/>
<circle cx="92.45" cy="136.66" r="1.42" style="stroke-width: 0.71;stroke: #377EB8;fill: #377EB8;"/>
<circle cx="92.45" cy="216.05" r="1.42" style="stroke-width: 0.71;stroke: #4DAF4A;fill: #4DAF4A;"/>
<circle cx="109.19" cy="62.23" r="1.42" style="stroke-width: 0.71;stroke: #E41A1C;fill: #E41A1C;"/>
<circle cx="109.19" cy="128.86" r="1.42" style="stroke-width: 0.71;stroke: #377EB8;fill: #377EB8;"/>
<circle cx="109.19" cy="225.27" r="1.42" style="stroke-width: 0.71;stroke: #4DAF4A;fill: #4DAF4A;"/>
<circle cx="125.92" cy="135.95" r="1.42" style="stroke-width: 0.71;stroke: #E41A1C;fill: #E41A1C;"/>
<circle cx="125.92" cy="121.07" r="1.42" style="stroke-width: 0.71;stroke: #377EB8;fill: #377EB8;"/>
<circle cx="125.92" cy="273.47" r="1.42" style="stroke-width: 0.71;stroke: #4DAF4A;fill: #4DAF4A;"/>
<circle cx="142.66" cy="87.75" r="1.42" style="stroke-width: 0.71;stroke: #E41A1C;fill: #E41A1C;"/>
<circle cx="142.66" cy="121.07" r="1.42" style="stroke-width: 0.71;stroke: #377EB8;fill: #377EB8;"/>
<circle cx="142.66" cy="250.79" r="1.42" style="stroke-width: 0.71;stroke: #4DAF4A;fill: #4DAF4A;"/>
<circle cx="159.39" cy="61.52" r="1.42" style="stroke-width: 0.71;stroke: #E41A1C;fill: #E41A1C;"/>
<circle cx="159.39" cy="111.14" r="1.42" style="stroke-width: 0.71;stroke: #377EB8;fill: #377EB8;"/>
<circle cx="159.39" cy="260.00" r="1.42" style="stroke-width: 0.71;stroke: #4DAF4A;fill: #4DAF4A;"/>
<circle cx="176.13" cy="133.83" r="1.42" style="stroke-width: 0.71;stroke: #E41A1C;fill: #E41A1C;"/>
<circle cx="176.13" cy="157.93" r="1.42" style="stroke-width: 0.71;stroke: #377EB8;fill: #377EB8;"/>
<circle cx="176.13" cy="259.29" r="1.42" style="stroke-width: 0.71;stroke: #4DAF4A;fill: #4DAF4A;"/>
<circle cx="192.86" cy="165.02" r="1.42" style="stroke-width: 0.71;stroke: #E41A1C;fill: #E41A1C;"/>
<circle cx="192.86" cy="145.17" r="1.42" style="stroke-width: 0.71;stroke: #377EB8;fill: #377EB8;"/>
<circle cx="192.86" cy="188.41" r="1.42" style="stroke-width: 0.71;stroke: #4DAF4A;fill: #4DAF4A;"/>
<circle cx="209.60" cy="160.05" r="1.42" style="stroke-width: 0.71;stroke: #E41A1C;fill: #E41A1C;"/>
<circle cx="209.60" cy="119.65" r="1.42" style="stroke-width: 0.71;stroke: #377EB8;fill: #377EB8;"/>
<circle cx="209.60" cy="254.33" r="1.42" style="stroke-width: 0.71;stroke: #4DAF4A;fill: #4DAF4A;"/>
<circle cx="226.33" cy="137.37" r="1.42" style="stroke-width: 0.71;stroke: #E41A1C;fill: #E41A1C;"/>
<circle cx="226.33" cy="117.52" r="1.42" style="stroke-width: 0.71;stroke: #377EB8;fill: #377EB8;"/>
<circle cx="226.33" cy="310.33" r="1.42" style="stroke-width: 0.71;stroke: #4DAF4A;fill: #4DAF4A;"/>
<circle cx="243.07" cy="148.00" r="1.42" style="stroke-width: 0.71;stroke: #E41A1C;fill: #E41A1C;"/>
<circle cx="243.07" cy="117.52" r="1.42" style="stroke-width: 0.71;stroke: #377EB8;fill: #377EB8;"/>
<circle cx="243.07" cy="298.28" r="1.42" style="stroke-width: 0.71;stroke: #4DAF4A;fill: #4DAF4A;"/>
<circle cx="259.80" cy="130.99" r="1.42" style="stroke-width: 0.71;stroke: #E41A1C;fill: #E41A1C;"/>
<circle cx="259.80" cy="108.31" r="1.42" style="stroke-width: 0.71;stroke: #377EB8;fill: #377EB8;"/>
<circle cx="259.80" cy="289.78" r="1.42" style="stroke-width: 0.71;stroke: #4DAF4A;fill: #4DAF4A;"/>
<circle cx="276.54" cy="132.41" r="1.42" style="stroke-width: 0.71;stroke: #E41A1C;fill: #E41A1C;"/>
<circle cx="276.54" cy="79.24" r="1.42" style="stroke-width: 0.71;stroke: #377EB8;fill: #377EB8;"/>
<circle cx="276.54" cy="235.19" r="1.42" style="stroke-width: 0.71;stroke: #4DAF4A;fill: #4DAF4A;"/>
<circle cx="293.27" cy="99.80" r="1.42" style="stroke-width: 0.71;stroke: #E41A1C;fill: #E41A1C;"/>
<circle cx="293.27" cy="97.67" r="1.42" style="stroke-width: 0.71;stroke: #377EB8;fill: #377EB8;"/>
<circle cx="293.27" cy="230.23" r="1.42" style="stroke-width: 0.71;stroke: #4DAF4A;fill: #4DAF4A;"/>
<circle cx="310.00" cy="87.75" r="1.42" style="stroke-width: 0.71;stroke: #E41A1C;fill: #E41A1C;"/>
<circle cx="310.00" cy="100.51" r="1.42" style="stroke-width: 0.71;stroke: #377EB8;fill: #377EB8;"/>
<circle cx="310.00" cy="260.00" r="1.42" style="stroke-width: 0.71;stroke: #4DAF4A;fill: #4DAF4A;"/>
<circle cx="326.74" cy="68.61" r="1.42" style="stroke-width: 0.71;stroke: #E41A1C;fill: #E41A1C;"/>
<circle cx="326.74" cy="92.00" r="1.42" style="stroke-width: 0.71;stroke: #377EB8;fill: #377EB8;"/>
<circle cx="326.74" cy="275.60" r="1.42" style="stroke-width: 0.71;stroke: #4DAF4A;fill: #4DAF4A;"/>
<circle cx="343.47" cy="58.69" r="1.42" style="stroke-width: 0.71;stroke: #E41A1C;fill: #E41A1C;"/>
<circle cx="343.47" cy="95.55" r="1.42" style="stroke-width: 0.71;stroke: #377EB8;fill: #377EB8;"/>
<circle cx="343.47" cy="267.80" r="1.42" style="stroke-width: 0.71;stroke: #4DAF4A;fill: #4DAF4A;"/>
<circle cx="360.21" cy="235.19" r="1.42" style="stroke-width: 0.71;stroke: #E41A1C;fill: #E41A1C;"/>
<circle cx="360.21" cy="277.02" r="1.42" style="stroke-width: 0.71;stroke: #377EB8;fill: #377EB8;"/>
<circle cx="360.21" cy="333.02" r="1.42" style="stroke-width: 0.71;stroke: #4DAF4A;fill: #4DAF4A;"/>
<circle cx="376.94" cy="128.15" r="1.42" style="stroke-width: 0.71;stroke: #E41A1C;fill: #E41A1C;"/>
<circle cx="376.94" cy="126.74" r="1.42" style="stroke-width: 0.71;stroke: #377EB8;fill: #377EB8;"/>
<circle cx="376.94" cy="242.28" r="1.42" style="stroke-width: 0.71;stroke: #4DAF4A;fill: #4DAF4A;"/>
<circle cx="393.68" cy="82.08" r="1.42" style="stroke-width: 0.71;stroke: #E41A1C;fill: #E41A1C;"/>
<circle cx="393.68" cy="133.83" r="1.42" style="stroke-width: 0.71;stroke: #377EB8;fill: #377EB8;"/>
<circle cx="393.68" cy="224.56" r="1.42" style="stroke-width: 0.71;stroke: #4DAF4A;fill: #4DAF4A;"/>
<circle cx="410.41" cy="143.75" r="1.42" style="stroke-width: 0.71;stroke: #E41A1C;fill: #E41A1C;"/>
<circle cx="410.41" cy="121.77" r="1.42" style="stroke-width: 0.71;stroke: #377EB8;fill: #377EB8;"/>
<circle cx="410.41" cy="205.42" r="1.42" style="stroke-width: 0.71;stroke: #4DAF4A;fill: #4DAF4A;"/>
<circle cx="427.15" cy="131.70" r="1.42" style="stroke-width: 0.71;stroke: #E41A1C;fill: #E41A1C;"/>
<circle cx="427.15" cy="116.81" r="1.42" style="stroke-width: 0.71;stroke: #377EB8;fill: #377EB8;"/>
<circle cx="427.15" cy="216.76" r="1.42" style="stroke-width: 0.71;stroke: #4DAF4A;fill: #4DAF4A;"/>
<circle cx="443.88" cy="126.74" r="1.42" style="stroke-width: 0.71;stroke: #E41A1C;fill: #E41A1C;"/>
<circle cx="443.88" cy="108.31" r="1.42" style="stroke-width: 0.71;stroke: #377EB8;fill: #377EB8;"/>
<circle cx="443.88" cy="186.28" r="1.42" style="stroke-width: 0.71;stroke: #4DAF4A;fill: #4DAF4A;"/>
<circle cx="460.62" cy="123.90" r="1.42" style="stroke-width: 0.71;stroke: #E41A1C;fill: #E41A1C;"/>
<circle cx="460.62" cy="112.56" r="1.42" style="stroke-width: 0.71;stroke: #377EB8;fill: #377EB8;"/>
<circle cx="460.62" cy="207.55" r="1.42" style="stroke-width: 0.71;stroke: #4DAF4A;fill: #4DAF4A;"/>
<circle cx="477.35" cy="118.94" r="1.42" style="stroke-width: 0.71;stroke: #E41A1C;fill: #E41A1C;"/>
<circle cx="477.35" cy="137.37" r="1.42" style="stroke-width: 0.71;stroke: #377EB8;fill: #377EB8;"/>
<circle cx="477.35" cy="275.60" r="1.42" style="stroke-width: 0.71;stroke: #4DAF4A;fill: #4DAF4A;"/>
<circle cx="494.09" cy="99.80" r="1.42" style="stroke-width: 0.71;stroke: #E41A1C;fill: #E41A1C;"/>
<circle cx="494.09" cy="99.80" r="1.42" style="stroke-width: 0.71;stroke: #377EB8;fill: #377EB8;"/>
<circle cx="494.09" cy="273.47" r="1.42" style="stroke-width: 0.71;stroke: #4DAF4A;fill: #4DAF4A;"/>
<circle cx="510.82" cy="121.07" r="1.42" style="stroke-width: 0.71;stroke: #E41A1C;fill: #E41A1C;"/>
<circle cx="510.82" cy="118.94" r="1.42" style="stroke-width: 0.71;stroke: #377EB8;fill: #377EB8;"/>
<circle cx="510.82" cy="260.00" r="1.42" style="stroke-width: 0.71;stroke: #4DAF4A;fill: #4DAF4A;"/>
<circle cx="527.56" cy="67.90" r="1.42" style="stroke-width: 0.71;stroke: #E41A1C;fill: #E41A1C;"/>
<circle cx="527.56" cy="95.55" r="1.42" style="stroke-width: 0.71;stroke: #377EB8;fill: #377EB8;"/>
<circle cx="527.56" cy="196.91" r="1.42" style="stroke-width: 0.71;stroke: #4DAF4A;fill: #4DAF4A;"/>
<circle cx="544.29" cy="59.39" r="1.42" style="stroke-width: 0.71;stroke: #E41A1C;fill: #E41A1C;"/>
<circle cx="544.29" cy="86.33" r="1.42" style="stroke-width: 0.71;stroke: #377EB8;fill: #377EB8;"/>
<circle cx="544.29" cy="194.79" r="1.42" style="stroke-width: 0.71;stroke: #4DAF4A;fill: #4DAF4A;"/>
<circle cx="561.03" cy="69.32" r="1.42" style="stroke-width: 0.71;stroke: #E41A1C;fill: #E41A1C;"/>
<circle cx="561.03" cy="110.43" r="1.42" style="stroke-width: 0.71;stroke: #377EB8;fill: #377EB8;"/>
<circle cx="561.03" cy="272.05" r="1.42" style="stroke-width: 0.71;stroke: #4DAF4A;fill: #4DAF4A;"/>
<circle cx="577.76" cy="47.34" r="1.42" style="stroke-width: 0.71;stroke: #E41A1C;fill: #E41A1C;"/>
<circle cx="577.76" cy="70.03" r="1.42" style="stroke-width: 0.71;stroke: #377EB8;fill: #377EB8;"/>
<circle cx="577.76" cy="191.95" r="1.42" style="stroke-width: 0.71;stroke: #4DAF4A;fill: #4DAF4A;"/>
<circle cx="594.50" cy="106.18" r="1.42" style="stroke-width: 0.71;stroke: #E41A1C;fill: #E41A1C;"/>
<circle cx="594.50" cy="136.66" r="1.42" style="stroke-width: 0.71;stroke: #377EB8;fill: #377EB8;"/>
<circle cx="594.50" cy="349.32" r="1.42" style="stroke-width: 0.71;stroke: #4DAF4A;fill: #4DAF4A;"/>
<circle cx="611.23" cy="242.99" r="1.42" style="stroke-width: 0.71;stroke: #E41A1C;fill: #E41A1C;"/>
<circle cx="611.23" cy="231.65" r="1.42" style="stroke-width: 0.71;stroke: #377EB8;fill: #377EB8;"/>
<circle cx="611.23" cy="437.22" r="1.42" style="stroke-width: 0.71;stroke: #4DAF4A;fill: #4DAF4A;"/>
<circle cx="627.96" cy="170.69" r="1.42" style="stroke-width: 0.71;stroke: #E41A1C;fill: #E41A1C;"/>
<circle cx="627.96" cy="159.34" r="1.42" style="stroke-width: 0.71;stroke: #377EB8;fill: #377EB8;"/>
<circle cx="627.96" cy="353.57" r="1.42" style="stroke-width: 0.71;stroke: #4DAF4A;fill: #4DAF4A;"/>
<circle cx="644.70" cy="171.39" r="1.42" style="stroke-width: 0.71;stroke: #E41A1C;fill: #E41A1C;"/>
<circle cx="644.70" cy="145.17" r="1.42" style="stroke-width: 0.71;stroke: #377EB8;fill: #377EB8;"/>
<circle cx="644.70" cy="310.33" r="1.42" style="stroke-width: 0.71;stroke: #4DAF4A;fill: #4DAF4A;"/>
<circle cx="661.43" cy="162.89" r="1.42" style="stroke-width: 0.71;stroke: #E41A1C;fill: #E41A1C;"/>
<circle cx="661.43" cy="133.12" r="1.42" style="stroke-width: 0.71;stroke: #377EB8;fill: #377EB8;"/>
<circle cx="661.43" cy="337.98" r="1.42" style="stroke-width: 0.71;stroke: #4DAF4A;fill: #4DAF4A;"/>
<circle cx="678.17" cy="162.18" r="1.42" style="stroke-width: 0.71;stroke: #E41A1C;fill: #E41A1C;"/>
<circle cx="678.17" cy="135.95" r="1.42" style="stroke-width: 0.71;stroke: #377EB8;fill: #377EB8;"/>
<circle cx="678.17" cy="375.55" r="1.42" style="stroke-width: 0.71;stroke: #4DAF4A;fill: #4DAF4A;"/>
<circle cx="694.90" cy="158.64" r="1.42" style="stroke-width: 0.71;stroke: #E41A1C;fill: #E41A1C;"/>
<circle cx="694.90" cy="140.91" r="1.42" style="stroke-width: 0.71;stroke: #377EB8;fill: #377EB8;"/>
<circle cx="694.90" cy="304.66" r="1.42" style="stroke-width: 0.71;stroke: #4DAF4A;fill: #4DAF4A;"/>
<circle cx="711.64" cy="147.29" r="1.42" style="stroke-width: 0.71;stroke: #E41A1C;fill: #E41A1C;"/>
<circle cx="711.64" cy="126.03" r="1.42" style="stroke-width: 0.71;stroke: #377EB8;fill: #377EB8;"/>
<circle cx="711.64" cy="309.62" r="1.42" style="stroke-width: 0.71;stroke: #4DAF4A;fill: #4DAF4A;"/>
<circle cx="728.37" cy="200.46" r="1.42" style="stroke-width: 0.71;stroke: #E41A1C;fill: #E41A1C;"/>
<circle cx="728.37" cy="186.99" r="1.42" style="stroke-width: 0.71;stroke: #377EB8;fill: #377EB8;"/>
<circle cx="728.37" cy="379.09" r="1.42" style="stroke-width: 0.71;stroke: #4DAF4A;fill: #4DAF4A;"/>
<circle cx="745.11" cy="121.07" r="1.42" style="stroke-width: 0.71;stroke: #E41A1C;fill: #E41A1C;"/>
<circle cx="745.11" cy="112.56" r="1.42" style="stroke-width: 0.71;stroke: #377EB8;fill: #377EB8;"/>
<circle cx="745.11" cy="279.14" r="1.42" style="stroke-width: 0.71;stroke: #4DAF4A;fill: #4DAF4A;"/>
<circle cx="761.84" cy="128.86" r="1.42" style="stroke-width: 0.71;stroke: #E41A1C;fill: #E41A1C;"/>
<circle cx="761.84" cy="131.70" r="1.42" style="stroke-width: 0.71;stroke: #377EB8;fill: #377EB8;"/>
<circle cx="761.84" cy="295.45" r="1.42" style="stroke-width: 0.71;stroke: #4DAF4A;fill: #4DAF4A;"/>
<circle cx="778.58" cy="109.72" r="1.42" style="stroke-width: 0.71;stroke: #E41A1C;fill: #E41A1C;"/>
<circle cx="778.58" cy="121.07" r="1.42" style="stroke-width: 0.71;stroke: #377EB8;fill: #377EB8;"/>
<circle cx="778.58" cy="292.61" r="1.42" style="stroke-width: 0.71;stroke: #4DAF4A;fill: #4DAF4A;"/>
</g><g clip-path="url(#c2)">
<g><text x="35.64" y="414.59" text-anchor="end" style="font-family: Arial;font-size: 12.00px;fill: #4D4D4D;" textLength="13.35px" lengthAdjust="spacingAndGlyphs">10</text></g>
<g><text x="35.64" y="343.70" text-anchor="end" style="font-family: Arial;font-size: 12.00px;fill: #4D4D4D;" textLength="13.35px" lengthAdjust="spacingAndGlyphs">11</text></g>
<g><text x="35.64" y="272.81" text-anchor="end" style="font-family: Arial;font-size: 12.00px;fill: #4D4D4D;" textLength="13.35px" lengthAdjust="spacingAndGlyphs">12</text></g>
<g><text x="35.64" y="201.93" text-anchor="end" style="font-family: Arial;font-size: 12.00px;fill: #4D4D4D;" textLength="13.35px" lengthAdjust="spacingAndGlyphs">13</text></g>
<g><text x="35.64" y="131.04" text-anchor="end" style="font-family: Arial;font-size: 12.00px;fill: #4D4D4D;" textLength="13.35px" lengthAdjust="spacingAndGlyphs">14</text></g>
<g><text x="35.64" y="60.16" text-anchor="end" style="font-family: Arial;font-size: 12.00px;fill: #4D4D4D;" textLength="13.35px" lengthAdjust="spacingAndGlyphs">15</text></g>
<g><text x="142.66" y="470.26" text-anchor="middle" style="font-family: Arial;font-size: 12.00px;fill: #4D4D4D;" textLength="26.70px" lengthAdjust="spacingAndGlyphs">1970</text></g>
<g><text x="310.00" y="470.26" text-anchor="middle" style="font-family: Arial;font-size: 12.00px;fill: #4D4D4D;" textLength="26.70px" lengthAdjust="spacingAndGlyphs">1980</text></g>
<g><text x="477.35" y="470.26" text-anchor="middle" style="font-family: Arial;font-size: 12.00px;fill: #4D4D4D;" textLength="26.70px" lengthAdjust="spacingAndGlyphs">1990</text></g>
<g><text x="644.70" y="470.26" text-anchor="middle" style="font-family: Arial;font-size: 12.00px;fill: #4D4D4D;" textLength="26.70px" lengthAdjust="spacingAndGlyphs">2000</text></g>
<g><text x="812.05" y="470.26" text-anchor="middle" style="font-family: Arial;font-size: 12.00px;fill: #4D4D4D;" textLength="26.70px" lengthAdjust="spacingAndGlyphs">2010</text></g>
<g><text x="427.15" y="486.41" text-anchor="middle" style="font-family: Arial;font-size: 15.00px;" textLength="33.34px" lengthAdjust="spacingAndGlyphs">Time</text></g>
<g><text transform="translate(16.24,242.28) rotate(-90.00)" text-anchor="middle" style="font-family: Arial;font-size: 15.00px;" textLength="75.92px" lengthAdjust="spacingAndGlyphs">Abundance</text></g>
<g><text x="40.58" y="18.39" style="font-family: Arial;font-size: 18.00px;" textLength="245.08px" lengthAdjust="spacingAndGlyphs">DIG_13 mdl 7 : surv all surv all</text></g>
</g>
</svg>