<svg xmlns="http://www.w3.org/2000/svg" xmlns:xlink="http://www.w3.org/1999/xlink" class="httpgd" width="1024.00" height="619.00" viewBox="0 0 819.20 495.20">
<defs>
  <style type='text/css'><![CDATA[
    .httpgd line, .httpgd polyline, .httpgd polygon, .httpgd path, .httpgd rect, .httpgd circle {
      fill: none;
      stroke: #000000;
      stroke-linecap: round;
      stroke-linejoin: round;
      stroke-miterlimit: 10.00;
    }
  ]]></style>
<clipPath id="c0"><rect x="0.00" y="0.00" width="819.20" height="495.20"/></clipPath>
<clipPath id="c1"><rect x="47.25" y="27.85" width="766.47" height="428.86"/></clipPath>
<clipPath id="c2"><rect x="0.00" y="0.00" width="819.20" height="495.20"/></clipPath>
</defs>
<rect width="100%" height="100%" style="stroke: none;fill: #FFFFFF;"/>
<g clip-path="url(#c0)">
</g><g clip-path="url(#c1)">
<polyline points="47.25,416.74 813.72,416.74" style="stroke-width: 0.53;stroke: #EBEBEB;stroke-linecap: butt;"/>
<polyline points="47.25,314.32 813.72,314.32" style="stroke-width: 0.53;stroke: #EBEBEB;stroke-linecap: butt;"/>
<polyline points="47.25,211.90 813.72,211.90" style="stroke-width: 0.53;stroke: #EBEBEB;stroke-linecap: butt;"/>
<polyline points="47.25,109.48 813.72,109.48" style="stroke-width: 0.53;stroke: #EBEBEB;stroke-linecap: butt;"/>
<polyline points="156.75,456.71 156.75,27.85" style="stroke-width: 0.53;stroke: #EBEBEB;stroke-linecap: butt;"/>
<polyline points="405.60,456.71 405.60,27.85" style="stroke-width: 0.53;stroke: #EBEBEB;stroke-linecap: butt;"/>
<polyline points="654.45,456.71 654.45,27.85" style="stroke-width: 0.53;stroke: #EBEBEB;stroke-linecap: butt;"/>
<polyline points="47.25,365.53 813.72,365.53" style="stroke-width: 1.07;stroke: #EBEBEB;stroke-linecap: butt;"/>
<polyline points="47.25,263.11 813.72,263.11" style="stroke-width: 1.07;stroke: #EBEBEB;stroke-linecap: butt;"/>
<polyline points="47.25,160.69 813.72,160.69" style="stroke-width: 1.07;stroke: #EBEBEB;stroke-linecap: butt;"/>
<polyline points="47.25,58.28 813.72,58.28" style="stroke-width: 1.07;stroke: #EBEBEB;stroke-linecap: butt;"/>
<polyline points="281.17,456.71 281.17,27.85" style="stroke-width: 1.07;stroke: #EBEBEB;stroke-linecap: butt;"/>
<polyline points="530.03,456.71 530.03,27.85" style="stroke-width: 1.07;stroke: #EBEBEB;stroke-linecap: butt;"/>
<polyline points="778.88,456.71 778.88,27.85" style="stroke-width: 1.07;stroke: #EBEBEB;stroke-linecap: butt;"/>
<polyline points="82.09,432.10 131.86,411.64 181.63,408.32 231.40,385.54 281.17,371.46 330.94,356.10 380.71,351.25 430.49,340.23 480.26,324.42 530.03,312.15 579.80,343.32 629.57,326.62 679.34,311.92 729.11,314.54 778.88,318.81" style="stroke-width: 2.13;stroke: #E41A1C;stroke-linecap: butt;"/>
<polyline points="82.09,370.65 131.86,47.34 181.63,349.98 231.40,206.99 281.17,292.43 330.94,286.24 380.71,286.62 430.49,296.30 480.26,307.51 530.03,313.59 579.80,295.16 629.57,310.01 679.34,323.54 729.11,327.21 778.88,324.79" style="stroke-width: 2.13;stroke: #377EB8;stroke-linecap: butt;"/>
<polyline points="82.09,386.01 131.86,326.67 181.63,366.47 231.40,329.79 281.17,341.47 330.94,328.21 380.71,331.05 430.49,322.38 480.26,312.57 530.03,305.04 579.80,327.78 629.57,316.47 679.34,307.57 729.11,309.73 778.88,313.42" style="stroke-width: 2.13;stroke: #4DAF4A;stroke-linecap: butt;"/>
<polyline points="82.09,378.84 131.86,405.73 181.63,372.02 231.40,395.80 281.17,384.82 330.94,387.56 380.71,385.55 430.49,385.98 480.26,383.64 530.03,380.32 579.80,378.84 629.57,382.69 679.34,382.38 729.11,380.73 778.88,382.06" style="stroke-width: 2.13;stroke: #984EA3;stroke-linecap: butt;"/>
<polyline points="82.09,437.22 131.86,426.66 181.63,414.38 231.40,413.86 281.17,407.40 330.94,404.42 380.71,399.24 430.49,397.24 480.26,392.69 530.03,386.98 579.80,386.38 629.57,389.97 679.34,388.39 729.11,385.67 778.88,387.19" style="stroke-width: 2.13;stroke: #FF7F00;stroke-linecap: butt;"/>
<polyline points="82.09,219.07 131.86,132.80 181.63,222.77 231.40,208.93 281.17,245.46 330.94,245.94 380.71,254.14 430.49,258.45 480.26,261.85 530.03,263.52 579.80,269.86 629.57,277.85 679.34,280.22 729.11,279.90 778.88,284.51" style="stroke-width: 2.13;stroke: #FFFF33;stroke-linecap: butt;"/>
<circle cx="82.09" cy="386.01" r="1.42" style="stroke-width: 0.71;stroke: #4DAF4A;fill: #4DAF4A;"/>
<circle cx="82.09" cy="432.10" r="1.42" style="stroke-width: 0.71;stroke: #E41A1C;fill: #E41A1C;"/>
<circle cx="82.09" cy="370.65" r="1.42" style="stroke-width: 0.71;stroke: #377EB8;fill: #377EB8;"/>
<circle cx="82.09" cy="437.22" r="1.42" style="stroke-width: 0.71;stroke: #FF7F00;fill: #FF7F00;"/>
<circle cx="82.09" cy="219.07" r="1.42" style="stroke-width: 0.71;stroke: #FFFF33;fill: #FFFF33;"/>
<circle cx="82.09" cy="378.84" r="1.42" style="stroke-width: 0.71;stroke: #984EA3;fill: #984EA3;"/>
<circle cx="131.86" cy="312.27" r="1.42" style="stroke-width: 0.71;stroke: #4DAF4A;fill: #4DAF4A;"/>
<circle cx="131.86" cy="383.96" r="1.42" style="stroke-width: 0.71;stroke: #E41A1C;fill: #E41A1C;"/>
<circle cx="131.86" cy="147.38" r="1.42" style="stroke-width: 0.71;stroke: #377EB8;fill: #377EB8;"/>
<circle cx="131.86" cy="428.00" r="1.42" style="stroke-width: 0.71;stroke: #FF7F00;fill: #FF7F00;"/>
<circle cx="131.86" cy="161.72" r="1.42" style="stroke-width: 0.71;stroke: #FFFF33;fill: #FFFF33;"/>
<circle cx="131.86" cy="403.42" r="1.42" style="stroke-width: 0.71;stroke: #984EA3;fill: #984EA3;"/>
<circle cx="181.63" cy="319.44" r="1.42" style="stroke-width: 0.71;stroke: #4DAF4A;fill: #4DAF4A;"/>
<circle cx="181.63" cy="392.16" r="1.42" style="stroke-width: 0.71;stroke: #E41A1C;fill: #E41A1C;"/>
<circle cx="181.63" cy="284.62" r="1.42" style="stroke-width: 0.71;stroke: #377EB8;fill: #377EB8;"/>
<circle cx="181.63" cy="395.23" r="1.42" style="stroke-width: 0.71;stroke: #FF7F00;fill: #FF7F00;"/>
<circle cx="181.63" cy="144.31" r="1.42" style="stroke-width: 0.71;stroke: #FFFF33;fill: #FFFF33;"/>
<circle cx="181.63" cy="352.21" r="1.42" style="stroke-width: 0.71;stroke: #984EA3;fill: #984EA3;"/>
<circle cx="231.40" cy="357.33" r="1.42" style="stroke-width: 0.71;stroke: #4DAF4A;fill: #4DAF4A;"/>
<circle cx="231.40" cy="386.01" r="1.42" style="stroke-width: 0.71;stroke: #E41A1C;fill: #E41A1C;"/>
<circle cx="231.40" cy="61.35" r="1.42" style="stroke-width: 0.71;stroke: #377EB8;fill: #377EB8;"/>
<circle cx="231.40" cy="412.64" r="1.42" style="stroke-width: 0.71;stroke: #FF7F00;fill: #FF7F00;"/>
<circle cx="231.40" cy="186.30" r="1.42" style="stroke-width: 0.71;stroke: #FFFF33;fill: #FFFF33;"/>
<circle cx="231.40" cy="383.96" r="1.42" style="stroke-width: 0.71;stroke: #984EA3;fill: #984EA3;"/>
<circle cx="281.17" cy="363.48" r="1.42" style="stroke-width: 0.71;stroke: #4DAF4A;fill: #4DAF4A;"/>
<circle cx="281.17" cy="392.16" r="1.42" style="stroke-width: 0.71;stroke: #E41A1C;fill: #E41A1C;"/>
<circle cx="281.17" cy="187.32" r="1.42" style="stroke-width: 0.71;stroke: #377EB8;fill: #377EB8;"/>
<circle cx="281.17" cy="430.05" r="1.42" style="stroke-width: 0.71;stroke: #FF7F00;fill: #FF7F00;"/>
<circle cx="281.17" cy="212.93" r="1.42" style="stroke-width: 0.71;stroke: #FFFF33;fill: #FFFF33;"/>
<circle cx="281.17" cy="399.32" r="1.42" style="stroke-width: 0.71;stroke: #984EA3;fill: #984EA3;"/>
<circle cx="330.94" cy="344.02" r="1.42" style="stroke-width: 0.71;stroke: #4DAF4A;fill: #4DAF4A;"/>
<circle cx="330.94" cy="403.42" r="1.42" style="stroke-width: 0.71;stroke: #E41A1C;fill: #E41A1C;"/>
<circle cx="330.94" cy="381.91" r="1.42" style="stroke-width: 0.71;stroke: #377EB8;fill: #377EB8;"/>
<circle cx="330.94" cy="416.74" r="1.42" style="stroke-width: 0.71;stroke: #FF7F00;fill: #FF7F00;"/>
<circle cx="330.94" cy="165.81" r="1.42" style="stroke-width: 0.71;stroke: #FFFF33;fill: #FFFF33;"/>
<circle cx="330.94" cy="395.23" r="1.42" style="stroke-width: 0.71;stroke: #984EA3;fill: #984EA3;"/>
<circle cx="380.71" cy="294.86" r="1.42" style="stroke-width: 0.71;stroke: #4DAF4A;fill: #4DAF4A;"/>
<circle cx="380.71" cy="294.86" r="1.42" style="stroke-width: 0.71;stroke: #E41A1C;fill: #E41A1C;"/>
<circle cx="380.71" cy="122.80" r="1.42" style="stroke-width: 0.71;stroke: #377EB8;fill: #377EB8;"/>
<circle cx="380.71" cy="378.84" r="1.42" style="stroke-width: 0.71;stroke: #FF7F00;fill: #FF7F00;"/>
<circle cx="380.71" cy="239.55" r="1.42" style="stroke-width: 0.71;stroke: #FFFF33;fill: #FFFF33;"/>
<circle cx="380.71" cy="374.74" r="1.42" style="stroke-width: 0.71;stroke: #984EA3;fill: #984EA3;"/>
<circle cx="430.49" cy="328.66" r="1.42" style="stroke-width: 0.71;stroke: #4DAF4A;fill: #4DAF4A;"/>
<circle cx="430.49" cy="392.16" r="1.42" style="stroke-width: 0.71;stroke: #E41A1C;fill: #E41A1C;"/>
<circle cx="430.49" cy="185.27" r="1.42" style="stroke-width: 0.71;stroke: #377EB8;fill: #377EB8;"/>
<circle cx="430.49" cy="388.06" r="1.42" style="stroke-width: 0.71;stroke: #FF7F00;fill: #FF7F00;"/>
<circle cx="430.49" cy="224.19" r="1.42" style="stroke-width: 0.71;stroke: #FFFF33;fill: #FFFF33;"/>
<circle cx="430.49" cy="376.79" r="1.42" style="stroke-width: 0.71;stroke: #984EA3;fill: #984EA3;"/>
<circle cx="480.26" cy="378.84" r="1.42" style="stroke-width: 0.71;stroke: #4DAF4A;fill: #4DAF4A;"/>
<circle cx="480.26" cy="395.23" r="1.42" style="stroke-width: 0.71;stroke: #E41A1C;fill: #E41A1C;"/>
<circle cx="480.26" cy="397.28" r="1.42" style="stroke-width: 0.71;stroke: #377EB8;fill: #377EB8;"/>
<circle cx="480.26" cy="405.47" r="1.42" style="stroke-width: 0.71;stroke: #FF7F00;fill: #FF7F00;"/>
<circle cx="480.26" cy="264.13" r="1.42" style="stroke-width: 0.71;stroke: #FFFF33;fill: #FFFF33;"/>
<circle cx="480.26" cy="386.01" r="1.42" style="stroke-width: 0.71;stroke: #984EA3;fill: #984EA3;"/>
<circle cx="530.03" cy="308.17" r="1.42" style="stroke-width: 0.71;stroke: #4DAF4A;fill: #4DAF4A;"/>
<circle cx="530.03" cy="397.28" r="1.42" style="stroke-width: 0.71;stroke: #E41A1C;fill: #E41A1C;"/>
<circle cx="530.03" cy="335.83" r="1.42" style="stroke-width: 0.71;stroke: #377EB8;fill: #377EB8;"/>
<circle cx="530.03" cy="401.37" r="1.42" style="stroke-width: 0.71;stroke: #FF7F00;fill: #FF7F00;"/>
<circle cx="530.03" cy="259.01" r="1.42" style="stroke-width: 0.71;stroke: #FFFF33;fill: #FFFF33;"/>
<circle cx="530.03" cy="361.43" r="1.42" style="stroke-width: 0.71;stroke: #984EA3;fill: #984EA3;"/>
<circle cx="579.80" cy="266.18" r="1.42" style="stroke-width: 0.71;stroke: #4DAF4A;fill: #4DAF4A;"/>
<circle cx="579.80" cy="275.40" r="1.42" style="stroke-width: 0.71;stroke: #E41A1C;fill: #E41A1C;"/>
<circle cx="579.80" cy="275.40" r="1.42" style="stroke-width: 0.71;stroke: #377EB8;fill: #377EB8;"/>
<circle cx="579.80" cy="412.64" r="1.42" style="stroke-width: 0.71;stroke: #FF7F00;fill: #FF7F00;"/>
<circle cx="579.80" cy="279.50" r="1.42" style="stroke-width: 0.71;stroke: #FFFF33;fill: #FFFF33;"/>
<circle cx="579.80" cy="376.79" r="1.42" style="stroke-width: 0.71;stroke: #984EA3;fill: #984EA3;"/>
<circle cx="629.57" cy="336.85" r="1.42" style="stroke-width: 0.71;stroke: #4DAF4A;fill: #4DAF4A;"/>
<circle cx="629.57" cy="368.60" r="1.42" style="stroke-width: 0.71;stroke: #E41A1C;fill: #E41A1C;"/>
<circle cx="629.57" cy="364.50" r="1.42" style="stroke-width: 0.71;stroke: #377EB8;fill: #377EB8;"/>
<circle cx="629.57" cy="392.16" r="1.42" style="stroke-width: 0.71;stroke: #FF7F00;fill: #FF7F00;"/>
<circle cx="629.57" cy="222.14" r="1.42" style="stroke-width: 0.71;stroke: #FFFF33;fill: #FFFF33;"/>
<circle cx="629.57" cy="365.53" r="1.42" style="stroke-width: 0.71;stroke: #984EA3;fill: #984EA3;"/>
<circle cx="679.34" cy="328.66" r="1.42" style="stroke-width: 0.71;stroke: #4DAF4A;fill: #4DAF4A;"/>
<circle cx="679.34" cy="376.79" r="1.42" style="stroke-width: 0.71;stroke: #E41A1C;fill: #E41A1C;"/>
<circle cx="679.34" cy="290.76" r="1.42" style="stroke-width: 0.71;stroke: #377EB8;fill: #377EB8;"/>
<circle cx="679.34" cy="392.16" r="1.42" style="stroke-width: 0.71;stroke: #FF7F00;fill: #FF7F00;"/>
<circle cx="679.34" cy="254.92" r="1.42" style="stroke-width: 0.71;stroke: #FFFF33;fill: #FFFF33;"/>
<circle cx="679.34" cy="410.59" r="1.42" style="stroke-width: 0.71;stroke: #984EA3;fill: #984EA3;"/>
<circle cx="729.11" cy="332.75" r="1.42" style="stroke-width: 0.71;stroke: #4DAF4A;fill: #4DAF4A;"/>
<circle cx="729.11" cy="252.87" r="1.42" style="stroke-width: 0.71;stroke: #E41A1C;fill: #E41A1C;"/>
<circle cx="729.11" cy="353.24" r="1.42" style="stroke-width: 0.71;stroke: #377EB8;fill: #377EB8;"/>
<circle cx="729.11" cy="410.59" r="1.42" style="stroke-width: 0.71;stroke: #FF7F00;fill: #FF7F00;"/>
<circle cx="729.11" cy="361.43" r="1.42" style="stroke-width: 0.71;stroke: #FFFF33;fill: #FFFF33;"/>
<circle cx="729.11" cy="405.47" r="1.42" style="stroke-width: 0.71;stroke: #984EA3;fill: #984EA3;"/>
<circle cx="778.88" cy="298.96" r="1.42" style="stroke-width: 0.71;stroke: #4DAF4A;fill: #4DAF4A;"/>
<circle cx="778.88" cy="308.17" r="1.42" style="stroke-width: 0.71;stroke: #E41A1C;fill: #E41A1C;"/>
<circle cx="778.88" cy="364.50" r="1.42" style="stroke-width: 0.71;stroke: #377EB8;fill: #377EB8;"/>
<circle cx="778.88" cy="378.84" r="1.42" style="stroke-width: 0.71;stroke: #FF7F00;fill: #FF7F00;"/>
<circle cx="778.88" cy="250.82" r="1.42" style="stroke-width: 0.71;stroke: #FFFF33;fill: #FFFF33;"/>
<circle cx="778.88" cy="390.11" r="1.42" style="stroke-width: 0.71;stroke: #984EA3;fill: #984EA3;"/>
</g><g clip-path="url(#c2)">
<g><text x="42.32" y="369.83" text-anchor="end" style="font-family: Arial;font-size: 12.00px;fill: #4D4D4D;" textLength="20.02px" lengthAdjust="spacingAndGlyphs">100</text></g>
<g><text x="42.32" y="267.42" text-anchor="end" style="font-family: Arial;font-size: 12.00px;fill: #4D4D4D;" textLength="20.02px" lengthAdjust="spacingAndGlyphs">200</text></g>
<g><text x="42.32" y="165.00" text-anchor="end" style="font-family: Arial;font-size: 12.00px;fill: #4D4D4D;" textLength="20.02px" lengthAdjust="spacingAndGlyphs">300</text></g>
<g><text x="42.32" y="62.58" text-anchor="end" style="font-family: Arial;font-size: 12.00px;fill: #4D4D4D;" textLength="20.02px" lengthAdjust="spacingAndGlyphs">400</text></g>
<g><text x="281.17" y="470.26" text-anchor="middle" style="font-family: Arial;font-size: 12.00px;fill: #4D4D4D;" textLength="26.70px" lengthAdjust="spacingAndGlyphs">1995</text></g>
<g><text x="530.03" y="470.26" text-anchor="middle" style="font-family: Arial;font-size: 12.00px;fill: #4D4D4D;" textLength="26.70px" lengthAdjust="spacingAndGlyphs">2000</text></g>
<g><text x="778.88" y="470.26" text-anchor="middle" style="font-family: Arial;font-size: 12.00px;fill: #4D4D4D;" textLength="26.70px" lengthAdjust="spacingAndGlyphs">2005</text></g>
<g><text x="430.49" y="486.41" text-anchor="middle" style="font-family: Arial;font-size: 15.00px;" textLength="33.34px" lengthAdjust="spacingAndGlyphs">Time</text></g>
<g><text transform="translate(16.24,242.28) rotate(-90.00)" text-anchor="middle" style="font-family: Arial;font-size: 15.00px;" textLength="75.92px" lengthAdjust="spacingAndGlyphs">Abundance</text></g>
<g><text x="47.25" y="18.39" style="font-family: Arial;font-size: 18.00px;" textLength="260.11px" lengthAdjust="spacingAndGlyphs">LPI_2858 mdl 7 : surv all surv all</text></g>
</g>
</svg>